<mxfile host="65bd71144e">
    <diagram id="v0Zlf-B5F0bAbzsHiIw_" name="Page-1">
        <mxGraphModel dx="693" dy="370" grid="1" gridSize="10" guides="1" tooltips="1" connect="1" arrows="1" fold="1" page="1" pageScale="1" pageWidth="850" pageHeight="1100" math="0" shadow="0">
            <root>
                <mxCell id="0"/>
                <mxCell id="1" parent="0"/>
                <mxCell id="28" value="User" style="swimlane;whiteSpace=wrap;html=1;" vertex="1" parent="1">
                    <mxGeometry x="120" y="120" width="200" height="360" as="geometry"/>
                </mxCell>
                <mxCell id="29" value="" style="ellipse;html=1;shape=startState;fillColor=#000000;strokeColor=#ff0000;" vertex="1" parent="28">
                    <mxGeometry x="85" y="50" width="30" height="30" as="geometry"/>
                </mxCell>
                <mxCell id="30" value="Membuka halaman Contract" style="rounded=1;whiteSpace=wrap;html=1;" vertex="1" parent="28">
                    <mxGeometry x="40" y="110" width="120" height="60" as="geometry"/>
                </mxCell>
                <mxCell id="31" value="" style="edgeStyle=orthogonalEdgeStyle;html=1;verticalAlign=bottom;endArrow=open;endSize=8;strokeColor=#ff0000;entryX=0.5;entryY=0;entryDx=0;entryDy=0;" edge="1" parent="28" source="29" target="30">
                    <mxGeometry relative="1" as="geometry">
                        <mxPoint x="100" y="110" as="targetPoint"/>
                    </mxGeometry>
                </mxCell>
                <mxCell id="32" value="Tekan tombol pengaturan (detail contract) pada salah satu data contract" style="rounded=1;whiteSpace=wrap;html=1;" vertex="1" parent="28">
                    <mxGeometry x="40" y="210" width="120" height="70" as="geometry"/>
                </mxCell>
                <mxCell id="33" value="Sistem" style="swimlane;whiteSpace=wrap;html=1;" vertex="1" parent="1">
                    <mxGeometry x="320" y="120" width="200" height="360" as="geometry"/>
                </mxCell>
                <mxCell id="34" value="Menampilkan halaman Contract" style="rounded=1;whiteSpace=wrap;html=1;" vertex="1" parent="33">
                    <mxGeometry x="40" y="110" width="120" height="60" as="geometry"/>
                </mxCell>
                <mxCell id="35" value="Menampilkan detail contract beserta&amp;nbsp;&lt;div&gt;amandemen-nya&lt;/div&gt;" style="rounded=1;whiteSpace=wrap;html=1;" vertex="1" parent="33">
                    <mxGeometry x="40" y="215" width="120" height="60" as="geometry"/>
                </mxCell>
                <mxCell id="36" style="edgeStyle=none;html=1;entryX=1;entryY=0.5;entryDx=0;entryDy=0;" edge="1" parent="33">
                    <mxGeometry relative="1" as="geometry">
                        <Array as="points">
                            <mxPoint x="180" y="450"/>
                            <mxPoint x="180" y="350"/>
                        </Array>
                        <mxPoint x="160.00000000000023" y="350" as="targetPoint"/>
                    </mxGeometry>
                </mxCell>
                <mxCell id="37" value="" style="edgeStyle=none;html=1;exitX=0.5;exitY=1;exitDx=0;exitDy=0;entryX=0.5;entryY=0;entryDx=0;entryDy=0;" edge="1" parent="33" source="35" target="38">
                    <mxGeometry relative="1" as="geometry">
                        <mxPoint x="99.67000000000023" y="310" as="sourcePoint"/>
                        <mxPoint x="100" y="320" as="targetPoint"/>
                    </mxGeometry>
                </mxCell>
                <mxCell id="38" value="" style="ellipse;html=1;shape=endState;fillColor=#000000;strokeColor=#ff0000;" vertex="1" parent="33">
                    <mxGeometry x="85" y="310" width="30" height="30" as="geometry"/>
                </mxCell>
                <mxCell id="39" value="" style="edgeStyle=none;html=1;" edge="1" parent="1" source="30" target="34">
                    <mxGeometry relative="1" as="geometry"/>
                </mxCell>
                <mxCell id="40" value="" style="edgeStyle=none;html=1;entryX=0.5;entryY=0;entryDx=0;entryDy=0;exitX=0.5;exitY=1;exitDx=0;exitDy=0;" edge="1" parent="1" source="34" target="32">
                    <mxGeometry relative="1" as="geometry">
                        <Array as="points">
                            <mxPoint x="420" y="310"/>
                            <mxPoint x="220" y="310"/>
                        </Array>
                    </mxGeometry>
                </mxCell>
                <mxCell id="41" value="" style="edgeStyle=none;html=1;" edge="1" parent="1" source="32" target="35">
                    <mxGeometry relative="1" as="geometry"/>
                </mxCell>
            </root>
        </mxGraphModel>
    </diagram>
</mxfile>